nRows=48
nColumns=19
inDegrees=yes
endheader
time	ground_force_vx	ground_force_vy	ground_force_vz	ground_force_px	ground_force_py	ground_force_pz	1_ground_force_vx	1_ground_force_vy	1_ground_force_vz	1_ground_force_px	1_ground_force_py	1_ground_force_pz	ground_torque_x	ground_torque_y	ground_torque_z	1_ground_torque_x	1_ground_torque_y	1_ground_torque_z
9.136	0.0159224369185004	1.74481184580447	0.0694278931114172	0.300000012	0	0.609999999	-0.0360507413126624	0.881810669948022	-7.54775947478354e-05	0.300000012	0	0.2050000005	0.243722	-0.000721	-0.243722	0.073434	0.001443	-0.073434
9.137	0.0155604987103385	1.7437128158586	0.0646759801124534	0.300000012	0	0.609999999	-0.0318779737538191	0.879075964689734	-0.000858574597042875	0.300000012	0	0.2050000005	0.254618	0.002885	-0.254618	0.07225	-0.004328	-0.07225
9.138	0.0152504237039852	1.74263940782363	0.0599333719751942	0.300000012	0	0.609999999	-0.027655123820088	0.876352638766554	-0.00169676963640444	0.300000012	0	0.2050000005	0.259978	-0.002164	-0.259978	0.079167	0.002164	-0.079167
9.139	0.0150149046231025	1.74162247213388	0.0552972183131253	0.300000012	0	0.609999999	-0.023449624699092	0.87369622010098	-0.00258875329680177	0.300000012	0	0.2050000005	0.248605	-0.007213	-0.248605	0.083606	0.004328	-0.083606
9.14	0.0148758574893047	1.74069149258571	0.0508597451457303	0.300000012	0	0.609999999	-0.0193248788637728	0.871158051430416	-0.0035312013558606	0.300000012	0	0.2050000005	0.260055	0.003607	-0.260055	0.076333	0	-0.076333
9.141	0.0148532624257181	1.73987346250078	0.04670505979625	0.300000012	0	0.609999999	-0.0153384661474963	0.868783169837388	-0.00451801965203918	0.300000012	0	0.2050000005	0.254314	0.007935	-0.254314	0.069997	0.002164	-0.069997
9.142	0.01496407171744	1.73919202168953	0.0429063343426443	0.300000012	0	0.609999999	-0.0115406318359721	0.866608499465122	-0.00553991988272767	0.300000012	0	0.2050000005	0.242434	0.006492	-0.242434	0.070841	0.002885	-0.070841
9.143	0.0152212262998969	1.73866688147874	0.0395234686233142	0.300000012	0	0.609999999	-0.00797311190205311	0.864661425645502	-0.0065843476588974	0.300000012	0	0.2050000005	0.26218	0.007935	-0.26218	0.082307	-0.010099	-0.082307
9.144	0.0156328271846748	1.73831354161596	0.0366013199482683	0.300000012	0	0.609999999	-0.00466833728263427	0.862958802559289	-0.00763575246466466	0.300000012	0	0.2050000005	0.254184	0.004328	-0.254184	0.083883	-0.008656	-0.083883
9.145	0.0162015089183769	1.73814327885898	0.0341685672270982	0.300000012	0	0.609999999	-0.00164904213463454	0.861506429826788	-0.00867615896424165	0.300000012	0	0.2050000005	0.248806	0.004328	-0.248806	0.065404	-0.001443	-0.065404
9.146	0.0169240570062667	1.7381633657969	0.0322372526941641	0.300000012	0	0.609999999	0.00107171709843361	0.860299016818142	-0.00968597433640123	0.300000012	0	0.2050000005	0.258485	0.002885	-0.258485	0.066115	-0.000721	-0.066115
9.147	0.0177913005464108	1.73837746288793	0.0308030159382106	0.300000012	0	0.609999999	0.00349014392829881	0.85932063691611	-0.0106449500554957	0.300000012	0	0.2050000005	0.244666	-0.002885	-0.244666	0.088064	0.004328	-0.088064
9.148	0.0187882963104448	1.73878611883703	0.029846004093479	0.300000012	0	0.609999999	0.00561091701275818	0.858545656816915	-0.0115332104177637	0.300000012	0	0.2050000005	0.241658	0.002885	-0.241658	0.084218	0.006492	-0.084218
9.149	0.0198948028410253	1.73938731479432	0.0293324105010012	0.300000012	0	0.609999999	0.00744608944263436	0.857940107384136	-0.0123322640855644	0.300000012	0	0.2050000005	0.246702	0.001443	-0.246702	0.082181	0.003607	-0.082181
9.15	0.0210860244590641	1.74017699527573	0.0292165635427513	0.300000012	0	0.609999999	0.00901374162091731	0.85746344216567	-0.0130259273129625	0.300000012	0	0.2050000005	0.242229	-0.002164	-0.242229	0.084818	0.006492	-0.084818
9.151	0.0223335867749539	1.74114954074055	0.0294434593519114	0.300000012	0	0.609999999	0.010336472703423	0.857070608065157	-0.0136011054055336	0.300000012	0	0.2050000005	0.222119	0.008656	-0.222119	0.076315	0.006492	-0.076315
9.152	0.0236066886151706	1.74229815053974	0.0299516085388719	0.300000012	0	0.609999999	0.0114398261024527	0.856714331671674	-0.0140483988388738	0.300000012	0	0.2050000005	0.243226	0.008656	-0.243226	0.079836	0.002885	-0.079836
9.153	0.0248733615599919	1.74361511813719	0.030676049949103	0.300000012	0	0.609999999	0.0123507481473732	0.856347507029165	-0.0143625189502658	0.300000012	0	0.2050000005	0.258108	0.005049	-0.258108	0.075009	0.002885	-0.075009
9.154	0.0261017590872097	1.74509199183035	0.031551375731118	0.300000012	0	0.609999999	0.0130961742437149	0.855925558779319	-0.0145425126986199	0.300000012	0	0.2050000005	0.241981	0.003607	-0.241981	0.091444	0.01082	-0.091444
9.155	0.0272613941064049	1.74671962347037	0.0325146131147191	0.300000012	0	0.609999999	0.0137018234909397	0.855408650527245	-0.0145918054097873	0.300000012	0	0.2050000005	0.245407	0.007213	-0.245407	0.084153	0.001443	-0.084153
9.156	0.028324247407673	1.74848811545603	0.0335078198757862	0.300000012	0	0.609999999	0.0141912618704155	0.854763612877727	-0.014518074806633	0.300000012	0	0.2050000005	0.228136	0.007213	-0.228136	0.070251	0.009378	-0.070251
9.157	0.0292656803716403	1.75038668334989	0.0344802719546678	0.300000012	0	0.609999999	0.0145852683260072	0.853965478969164	-0.0143329701993527	0.300000012	0	0.2050000005	0.244987	0.01082	-0.244987	0.081835	0.002164	-0.081835
9.158	0.0300651024642419	1.75240345835733	0.0353901513737877	0.300000012	0	0.609999999	0.0149015107054771	0.852998537000402	-0.0140516893563337	0.300000012	0	0.2050000005	0.245614	0.014427	-0.245614	0.077603	0.004328	-0.077603
9.159	0.0307063661063814	1.75452526044821	0.0362056776883787	0.300000012	0	0.609999999	0.0151545130886413	0.851856838152034	-0.0136924242860161	0.300000012	0	0.2050000005	0.240154	0.007935	-0.240154	0.086122	0.015148	-0.086122
9.16	0.031177886418218	1.75673737815585	0.0369056632239681	0.300000012	0	0.609999999	0.0153558753792731	0.850544132670314	-0.0132756876197903	0.300000012	0	0.2050000005	0.254201	0.002164	-0.254201	0.099313	-0.002164	-0.099313
9.161	0.0314725085808473	1.75902339369492	0.0374795077038591	0.300000012	0	0.609999999	0.0155146920049047	0.84907324409182	-0.0128235345630754	0.300000012	0	0.2050000005	0.242185	0.010099	-0.242185	0.089585	-0.003607	-0.089585
9.162	0.031587168317297	1.76136509075903	0.0379266785046329	0.300000012	0	0.609999999	0.0156381097366591	0.847464928391097	-0.0123587017432103	0.300000012	0	0.2050000005	0.238897	0.018034	-0.238897	0.090124	0.004328	-0.090124
9.163	0.0315224084402541	1.76374247657926	0.0382557467291117	0.300000012	0	0.609999999	0.0157319644216196	0.845746297878964	-0.0119036931182373	0.300000012	0	0.2050000005	0.232842	0.014427	-0.232842	0.095238	0.002164	-0.095238
9.164	0.0312818241764608	1.7661339398138	0.038483065788358	0.300000012	0	0.609999999	0.0158014412915245	0.843948916150155	-0.011479852997632	0.300000012	0	0.2050000005	0.234545	0.012984	-0.234545	0.093849	0.004328	-0.093849
9.165	0.0308715106713977	1.76851655267767	0.038631188399673	0.300000012	0	0.609999999	0.0158517113838237	0.84210668850168	-0.0111064751811372	0.300000012	0	0.2050000005	0.254234	0.015148	-0.254234	0.092313	0.009378	-0.092313
9.166	0.0302995776354603	1.77086651099691	0.0387271204951175	0.300000012	0	0.609999999	0.0158885052962103	0.840253681515036	-0.0108000031214043	0.300000012	0	0.2050000005	0.252967	0.01082	-0.252967	0.092403	0.015148	-0.092403
9.167	0.0295757797592999	1.77315969129171	0.0388005073627661	0.300000012	0	0.609999999	0.0159185932309853	0.838422006576989	-0.0105733770705277	0.300000012	0	0.2050000005	0.247673	0.009378	-0.247673	0.07274	0.006492	-0.07274
9.168	0.0287112895691199	1.77537229108966	0.0388818394545936	0.300000012	0	0.609999999	0.0159501461766869	0.836639896373745	-0.0104355792978998	0.300000012	0	0.2050000005	0.241742	0.02164	-0.241742	0.072861	0.008656	-0.072861
9.169	0.0277186147125203	1.7774815086427	0.0390007539799517	0.300000012	0	0.609999999	0.0159929572957636	0.834930092197743	-0.0103914174777317	0.300000012	0	0.2050000005	0.242843	0.016591	-0.242843	0.079836	0.010099	-0.079836
9.17	0.0266116374321496	1.77946621183764	0.0391844951444811	0.300000012	0	0.609999999	0.0160585062455372	0.833308643923345	-0.0104415699490759	0.300000012	0	0.2050000005	0.247176	0.023804	-0.247176	0.096779	0.01587	-0.096779
9.171	0.0254057333129948	1.78130754364559	0.0394565821291753	0.300000012	0	0.609999999	0.0161598538324177	0.831784203414348	-0.0105828962434395	0.300000012	0	0.2050000005	0.258355	0.020198	-0.258355	0.105387	0.016591	-0.105387
9.172	0.0241179120009979	1.78298941291065	0.0398357207398609	0.300000012	0	0.609999999	0.0163113614687769	0.830357864978087	-0.0108089941433797	0.300000012	0	0.2050000005	0.262176	0.011542	-0.262176	0.082372	0.008656	-0.082372
9.173	0.0227669164506941	1.78449882463213	0.0403349826969332	0.300000012	0	0.609999999	0.0165282399218476	0.829023572652937	-0.0111109630226073	0.300000012	0	0.2050000005	0.247899	0.020198	-0.247899	0.096621	0.007213	-0.096621
9.174	0.0213732202571856	1.78582601355873	0.0409612658697018	0.300000012	0	0.609999999	0.0168259442157728	0.827769074328364	-0.0114783148326071	0.300000012	0	0.2050000005	0.240484	0.012263	-0.240484	0.079013	0.012984	-0.079013
9.175	0.0199588744036876	1.78696435966725	0.0417150390786943	0.300000012	0	0.609999999	0.0172194446762934	0.826577359532939	-0.0118999610724854	0.300000012	0	0.2050000005	0.253718	0.012984	-0.253718	0.072348	0.012263	-0.072348
9.176	0.0185471737231189	1.78791008444797	0.0425903658853673	0.300000012	0	0.609999999	0.017722415951763	0.825428475385426	-0.0123651979923681	0.300000012	0	0.2050000005	0.249221	0.013706	-0.249221	0.09381	0.002164	-0.09381
9.177	0.0171621369081477	1.78866175219412	0.0435751926458183	0.300000012	0	0.609999999	0.0183463945569422	0.82430157871516	-0.012864613776727	0.300000012	0	0.2050000005	0.237109	0.005771	-0.237109	0.10203	0.012263	-0.10203
9.178	0.0158278186763011	1.78921962823804	0.0446518769906229	0.300000012	0	0.609999999	0.0190999598407713	0.823177056667107	-0.0133908501011975	0.300000012	0	0.2050000005	0.236678	0.012263	-0.236678	0.076902	0.020198	-0.076902
9.179	0.0145674951159847	1.78958497213699	0.0457979242982228	0.300000012	0	0.609999999	0.0199879928006876	0.822038537291066	-0.0139391648630919	0.300000012	0	0.2050000005	0.236444	0.01082	-0.236444	0.075211	0.009378	-0.075211
9.18	0.0134027800368327	1.78975936309297	0.0469868925512241	0.300000012	0	0.609999999	0.021011062066713	0.820874618196276	-0.0145077610443377	0.300000012	0	0.2050000005	0.25592	0.01082	-0.25592	0.077558	0.009378	-0.077558
9.181	0.0123527390142536	1.78974416255961	0.0481894211674984	0.300000012	0	0.609999999	0.0221649774150945	0.819680165661869	-0.015097866413032	0.300000012	0	0.2050000005	0.251613	0.01082	-0.251613	0.068235	0.007935	-0.068235
9.182	0.0114330679383074	1.78954021177087	0.0493743376127256	0.300000012	0	0.609999999	0.0234405394592821	0.818457076297254	-0.0157135681639434	0.300000012	0	0.2050000005	0.249774	0.016591	-0.249774	0.079047	0.015148	-0.079047
9.183	0.010655395135282	1.78914783911622	0.0505097968440231	0.300000012	0	0.609999999	0.0248235009784742	0.817214443483983	-0.0163614240663059	0.300000012	0	0.2050000005	0.258653	0.007935	-0.258653	0.089799	0.019476	-0.089799
